<svg xmlns="http://www.w3.org/2000/svg" xmlns:xlink="http://www.w3.org/1999/xlink">
<defs>
    <symbol id="home" xmlns="http://www.w3.org/2000/svg"  viewBox="0 0 20 19" fill="none">
    <path d="M19.04 8.95999L10.64 0.559985C10.29 0.209985 9.72001 0.209985 9.37001 0.559985L0.96001 8.95999C0.61001 9.30999 0.61001 9.87998 0.96001 10.23C1.31001 10.58 1.88001 10.58 2.23001 10.23L9.99001 2.46999L17.75 10.23C17.93 10.41 18.16 10.49 18.39 10.49C18.62 10.49 18.85 10.4 19.03 10.23C19.38 9.87998 19.38 9.30999 19.03 8.95999H19.04Z" fill="#48484E"/>
    <path d="M18 13.9H15.7V11.6C15.7 11.1 15.3 10.7 14.8 10.7C14.3 10.7 13.9 11.1 13.9 11.6V13.9H11.6C11.1 13.9 10.7 14.3 10.7 14.8C10.7 15.3 11.1 15.7 11.6 15.7H13.9V18C13.9 18.5 14.3 18.9 14.8 18.9C15.3 18.9 15.7 18.5 15.7 18V15.7H18C18.5 15.7 18.9 15.3 18.9 14.8C18.9 14.3 18.5 13.9 18 13.9Z" fill="#48484E"/>
    <path d="M8.79998 17.1H4.89998V12.4C4.89998 11.9 4.49998 11.5 3.99998 11.5C3.49998 11.5 3.09998 11.9 3.09998 12.4V18C3.09998 18.5 3.49998 18.9 3.99998 18.9H8.79998C9.29998 18.9 9.69998 18.5 9.69998 18C9.69998 17.5 9.29998 17.1 8.79998 17.1Z" fill="#48484E"/>
    </symbol>

    <symbol id="userProfile" xmlns="http://www.w3.org/2000/svg"  viewBox="0 0 18 20" fill="none">
    <path d="M9.00001 10.9C8.34001 10.9 7.70001 10.77 7.09001 10.52C6.48001 10.27 5.94001 9.89998 5.47001 9.43998C5.01001 8.97998 4.64001 8.42998 4.39001 7.81998C4.14001 7.20998 4.01001 6.56998 4.01001 5.90998C4.01001 5.24998 4.14001 4.60998 4.39001 3.99998C4.64001 3.38998 5.00001 2.84998 5.47001 2.37998C5.94001 1.90998 6.48001 1.54998 7.09001 1.29998C8.30001 0.78998 9.69001 0.78998 10.9 1.29998C11.51 1.54998 12.05 1.91998 12.52 2.37998C12.99 2.84998 13.35 3.38998 13.6 3.99998C13.85 4.60998 13.98 5.24998 13.98 5.90998C13.98 6.56998 13.85 7.20998 13.6 7.81998C13.35 8.42998 12.98 8.97998 12.52 9.43998C12.05 9.90998 11.51 10.27 10.9 10.52C10.29 10.77 9.65001 10.9 8.99001 10.9H9.00001ZM9.00001 2.69998C8.58001 2.69998 8.17001 2.77998 7.78001 2.93998C7.39001 3.09998 7.05001 3.32998 6.75001 3.62998C6.45001 3.92998 6.22001 4.27998 6.06001 4.66998C5.90001 5.05998 5.82001 5.46998 5.82001 5.89998C5.82001 6.32998 5.90001 6.72998 6.06001 7.12998C6.22001 7.51998 6.45001 7.86998 6.75001 8.16998C7.05001 8.46998 7.40001 8.69998 7.78001 8.85998C8.56001 9.17998 9.44001 9.17998 10.21 8.85998C10.6 8.69998 10.94 8.46998 11.24 8.16998C11.54 7.86998 11.77 7.51998 11.93 7.12998C12.09 6.73998 12.17 6.32998 12.17 5.89998C12.17 5.46998 12.09 5.06998 11.93 4.66998C11.77 4.27998 11.54 3.92998 11.24 3.62998C10.94 3.32998 10.59 3.09998 10.21 2.93998C9.82001 2.77998 9.41001 2.69998 8.99001 2.69998H9.00001Z" fill="#48484E"/>
    <path d="M16.7 19.1H1.30004C1.01004 19.1 0.730042 18.96 0.570042 18.72C0.400042 18.48 0.360042 18.18 0.460042 17.9C1.09004 16.11 2.23004 14.59 3.77004 13.5C6.85004 11.31 11.17 11.31 14.25 13.5C15.79 14.59 16.93 16.12 17.56 17.9C17.66 18.18 17.61 18.48 17.45 18.72C17.29 18.96 17.01 19.1 16.72 19.1H16.7ZM2.69004 17.3H15.3C14.78 16.38 14.06 15.59 13.19 14.97C10.72 13.22 7.27004 13.22 4.80004 14.97C3.93004 15.59 3.21004 16.39 2.69004 17.3Z" fill="#48484E"/>
    </symbol>

    <symbol id="headPhone" xmlns="http://www.w3.org/2000/svg"  viewBox="0 0 20 22" fill="none">
    <path d="M10 0.900024C4.98002 0.900024 0.900024 4.97002 0.900024 9.98002V15.09C0.900024 16.71 2.22002 18.04 3.85002 18.04C5.48002 18.04 6.80002 16.72 6.80002 15.09V13.05C6.80002 11.43 5.48002 10.1 3.85002 10.1C3.44002 10.1 3.05002 10.18 2.70002 10.33V9.97003C2.70002 5.96002 5.97002 2.69002 10 2.69002C14.03 2.69002 17.3 5.95003 17.3 9.97003V10.33C16.95 10.18 16.56 10.1 16.15 10.1C14.52 10.1 13.2 11.42 13.2 13.05V15.09C13.2 16.28 13.92 17.31 14.94 17.77C14.26 18.53 12.49 19.3 10 19.3C9.50002 19.3 9.10003 19.7 9.10003 20.2C9.10003 20.7 9.50002 21.1 10 21.1C13.54 21.1 16.31 19.78 16.92 17.92C18.17 17.58 19.1 16.45 19.1 15.09V9.98002C19.1 4.97002 15.02 0.900024 10 0.900024ZM3.85002 11.9C4.48002 11.9 5.00002 12.41 5.00002 13.04V15.08C5.00002 15.71 4.48002 16.22 3.85002 16.22C3.22002 16.22 2.70002 15.71 2.70002 15.08V13.04C2.70002 12.41 3.22002 11.9 3.85002 11.9ZM17.3 15.09C17.3 15.72 16.78 16.23 16.15 16.23C15.52 16.23 15 15.72 15 15.09V13.05C15 12.42 15.52 11.91 16.15 11.91C16.78 11.91 17.3 12.42 17.3 13.05V15.09Z" fill="#48484E"/>
    </symbol>

    <symbol id="download" xmlns="http://www.w3.org/2000/svg" viewBox="0 0 20 19" fill="none">
    <path d="M9.28996 13.11C9.37996 13.2 9.48996 13.28 9.61996 13.33C9.73996 13.38 9.86996 13.41 9.99996 13.41C10.13 13.41 10.26 13.38 10.38 13.33C10.5 13.28 10.61 13.21 10.71 13.11L14.44 9.38001C14.83 8.99001 14.83 8.36001 14.44 7.97001C14.05 7.58001 13.42 7.58001 13.03 7.97001L11 10V1.20001C11 0.650012 10.55 0.200012 9.99996 0.200012C9.44996 0.200012 8.99996 0.650012 8.99996 1.20001V9.99001L6.96996 7.96001C6.57996 7.57001 5.94996 7.57001 5.55996 7.96001C5.16996 8.35001 5.16996 8.98001 5.55996 9.37001L9.28996 13.1V13.11Z" fill="#48484E"/>
    <path d="M18.4 13.27C17.85 13.27 17.4 13.72 17.4 14.27V16.14C17.4 16.37 17.31 16.59 17.15 16.75C16.99 16.91 16.77 17 16.54 17H3.46999C3.23999 17 3.01999 16.91 2.85999 16.75C2.69999 16.59 2.60999 16.37 2.60999 16.14V14.27C2.60999 13.72 2.15999 13.27 1.60999 13.27C1.05999 13.27 0.609985 13.72 0.609985 14.27V16.14C0.609985 16.89 0.919986 17.63 1.44999 18.17C1.98999 18.71 2.70999 19.01 3.47999 19.01H16.55C17.32 19.01 18.04 18.71 18.58 18.17C19.11 17.64 19.42 16.9 19.42 16.14V14.27C19.42 13.72 18.97 13.27 18.42 13.27H18.4Z" fill="#48484E"/>
    </symbol>

    <symbol id="telephone" xmlns="http://www.w3.org/2000/svg"  viewBox="0 0 16 16" fill="none">
    <path d="M11.6667 15.5833C10.8834 15.5833 10.1084 15.3583 9.45002 14.9333H9.43335C6.12502 12.6916 3.31669 9.87496 1.08335 6.56662C0.566686 5.76662 0.35002 4.81662 0.45002 3.89162C0.55002 2.96662 0.966686 2.09162 1.63335 1.42496L2.10002 0.958289C2.80002 0.258289 4.04169 0.258289 4.74169 0.958289L6.72502 2.94162C7.08335 3.29996 7.27502 3.76662 7.27502 4.26662C7.27502 4.76662 7.08335 5.23329 6.72502 5.58329C6.65002 5.65829 6.61669 5.74996 6.61669 5.84996C6.61669 5.94996 6.65835 6.04162 6.72502 6.10829L9.90002 9.28329C10.0417 9.42496 10.2834 9.42496 10.425 9.28329C11.1167 8.59162 12.375 8.59162 13.0667 9.28329L15.0417 11.2583C15.3917 11.6083 15.5917 12.0916 15.5917 12.5833C15.5917 13.075 15.4 13.55 15.0417 13.9L14.5667 14.375C13.9084 15.0333 13.0334 15.45 12.1084 15.5583C11.9584 15.575 11.8167 15.5833 11.6667 15.5833ZM10.2667 13.675C10.7667 13.9916 11.3667 14.125 11.95 14.0666C12.5417 14 13.0917 13.7333 13.5167 13.3166L13.9917 12.85C14.0584 12.7833 14.1 12.6833 14.1 12.5916C14.1 12.5 14.0584 12.4 13.9917 12.325L12.0167 10.35C11.8834 10.2083 11.6334 10.2083 11.4917 10.35C10.7834 11.0583 9.55002 11.0583 8.85002 10.35L5.67502 7.17496C5.32502 6.82496 5.12502 6.34996 5.12502 5.84996C5.12502 5.34996 5.31669 4.88329 5.67502 4.52496C5.74169 4.45829 5.78335 4.35829 5.78335 4.26662C5.78335 4.17496 5.74169 4.07496 5.67502 3.99996L3.69169 2.02496C3.55002 1.88329 3.30835 1.88329 3.16669 2.02496L2.70002 2.49162C2.28335 2.90829 2.01669 3.46662 1.95002 4.05829C1.88335 4.64996 2.02502 5.24996 2.35002 5.74996C4.46669 8.88329 7.13335 11.55 10.2834 13.675H10.2667Z" fill="#48484E"/>
    <path d="M14.8332 7.17497C14.5166 7.17497 14.2249 6.97497 14.1249 6.66664C13.7499 5.5583 13.1166 4.5333 12.2916 3.7083C11.4666 2.8833 10.4416 2.24997 9.33325 1.87497C8.94158 1.74164 8.72491 1.31664 8.85825 0.924971C8.99158 0.533304 9.41658 0.324971 9.80825 0.449971C11.1332 0.891637 12.3582 1.64997 13.3499 2.64164C14.3416 3.6333 15.0999 4.8583 15.5416 6.1833C15.6749 6.57497 15.4582 6.99997 15.0666 7.1333C14.9916 7.1583 14.9082 7.17497 14.8249 7.17497H14.8332Z" fill="#48484E"/>
    <path d="M11.5917 7.23332C11.3334 7.23332 11.0917 7.09999 10.9501 6.86666C10.5001 6.12499 9.87508 5.49166 9.13341 5.04999C8.77508 4.83332 8.66674 4.37499 8.87508 4.02499C9.09174 3.66666 9.55008 3.54999 9.90008 3.76666C10.8501 4.34166 11.6584 5.14166 12.2334 6.09999C12.4501 6.45832 12.3334 6.91666 11.9751 7.12499C11.8584 7.19999 11.7251 7.23332 11.5917 7.23332Z" fill="#48484E"/>
    </symbol>
 </defs>

</svg>